# Blender v2.93.6 OBJ File: ''
# www.blender.org
mtllib BigPropeller.mtl
o Propeller_1
v 249.340530 548.742188 -16.835133
v 249.340530 548.742188 -110.075134
v 295.960510 548.742188 -97.583344
v 249.340515 600.878296 -110.075119
v 295.960510 600.878296 -97.583336
v 168.592316 548.742188 29.784870
v 156.100525 548.742188 -16.835129
v 330.088745 548.742188 -63.455139
v 330.088745 600.878296 -63.455124
v 168.592316 600.878296 29.784880
v 156.100525 600.878296 -16.835119
v 342.580536 548.742188 -16.835136
v 342.580536 600.878296 -16.835127
v 168.592316 548.742188 -63.455132
v 330.088745 548.742188 29.784864
v 330.088745 600.878296 29.784872
v 168.592316 600.878296 -63.455120
v 295.960541 548.742188 63.913071
v 295.960541 600.878296 63.913086
v 202.720520 548.742188 -97.583336
v 249.340530 548.742188 76.404869
v 249.340530 600.878296 76.404877
v 202.720520 600.878296 -97.583328
v 202.720535 548.742188 63.913074
v 202.720535 600.878296 63.913090
v 249.340530 605.747070 -87.977242
v 284.911591 605.747070 -78.446007
v 213.769470 605.747070 -78.446007
v 310.951416 605.747070 -52.406185
v 187.729645 605.747070 -52.406178
v 320.482635 605.747070 -16.835125
v 178.198410 605.747070 -16.835119
v 310.951416 605.747070 18.735935
v 187.729645 605.747070 18.735941
v 284.911591 605.747070 44.775761
v 213.769470 605.747070 44.775764
v 249.340530 605.747070 54.306999
v 798.696655 612.626526 -2090.502930
v 798.696655 617.415466 -2090.502930
v 841.095337 617.415466 -2079.142090
v 841.095398 612.626526 -2079.142090
v 213.769470 624.294250 -78.445999
v 249.340530 624.294250 -87.977242
v 284.911591 624.294250 -78.446007
v 310.951416 624.294250 -52.406181
v 187.729645 624.294250 -52.406174
v 320.482635 624.294250 -16.835123
v -1825.924072 612.626282 -534.299438
v -1825.924072 617.415161 -534.299438
v -1811.369385 617.415222 -588.618225
v -1811.369385 612.626343 -588.618225
v 2345.500732 613.745239 545.356567
v 2345.500732 616.295959 545.356567
v 2341.018555 616.295898 562.084229
v 2341.018555 613.745178 562.084229
v 187.729645 624.294250 18.735943
v 178.198410 624.294250 -16.835115
v 310.951416 624.294250 18.735937
v 284.911591 624.294250 44.775764
v 213.769470 624.294250 44.775768
v 249.340530 624.294250 54.307003
v -278.555542 614.226990 2081.565918
v -278.555542 615.813660 2081.565918
v -312.010925 615.813660 2072.601562
v -312.010925 614.226990 2072.601562
v 249.340515 628.844849 -115.366959
v 298.606445 628.844849 -102.166199
v 200.074600 628.844849 -102.166191
v 334.671600 628.844849 -66.101044
v 164.009445 628.844849 -66.101036
v 347.872375 628.844849 -16.835121
v 150.808685 628.844849 -16.835114
v 334.671600 628.844849 32.430798
v 164.009460 628.844849 32.430805
v 298.606445 628.844849 68.495949
v 200.074615 628.844849 68.495956
v 249.340530 628.844849 81.696716
v 249.340515 661.747742 -105.809357
v 293.827637 661.747742 -93.889076
v 204.853394 661.747742 -93.889069
v 326.394470 661.747742 -61.322239
v 172.286560 661.747742 -61.322231
v 338.314789 661.747742 -16.835114
v 160.366272 661.747742 -16.835106
v 326.394501 661.747742 27.652010
v 172.286575 661.747742 27.652018
v 293.827667 661.747742 60.218845
v 204.853409 661.747742 60.218849
v 249.340530 661.747742 72.139137
v 249.340530 677.847595 -43.438408
v 262.642181 677.847595 -39.874241
v 236.038879 677.847595 -39.874241
v 272.379669 677.847595 -30.136759
v 226.301392 677.847595 -30.136757
v 275.943817 677.847595 -16.835110
v 222.737228 677.847595 -16.835108
v 272.379669 677.847595 -3.533459
v 226.301392 677.847595 -3.533458
v 262.642181 677.847595 6.204025
v 236.038879 677.847595 6.204026
v 249.340530 677.847595 9.768192
v 2686.995117 513.583740 -13.089384
v 372.082703 599.995605 -603.331665
v 445.180695 599.995605 -587.891113
v 445.180695 630.045959 -587.891113
v 372.082703 630.045959 -603.331665
v -344.884949 607.542114 -140.394226
v -333.792084 607.542175 -203.794586
v -333.792084 622.499268 -203.794571
v -344.884949 622.499207 -140.394211
v 912.045959 608.091187 135.865265
v 907.847900 608.091125 190.045944
v 907.847900 621.950073 190.045959
v 912.045959 621.950134 135.865280
v 157.859451 607.523987 476.706146
v 84.457405 607.523987 472.101349
v 84.457405 622.517212 472.101349
v 157.859451 622.517212 476.706146
vt 0.867521 -0.964846
vt 0.878053 -0.964846
vt 0.876642 -0.970112
vt 0.094477 -0.262760
vt 0.094477 -0.307766
vt 0.090726 -0.307766
vt 0.090726 -0.262760
vt 0.862255 -0.955726
vt 0.867521 -0.954315
vt 0.872787 -0.973967
vt 0.086976 -0.307766
vt 0.086976 -0.262760
vt 0.064472 -0.262760
vt 0.064472 -0.307766
vt 0.060722 -0.307766
vt 0.060722 -0.262760
vt 0.867521 -0.975378
vt 0.083225 -0.307766
vt 0.083225 -0.262760
vt 0.872787 -0.955726
vt 0.862255 -0.973967
vt 0.079474 -0.307766
vt 0.079474 -0.262760
vt 0.056971 -0.307766
vt 0.056971 -0.262760
vt 0.858400 -0.970112
vt 0.075724 -0.307766
vt 0.075724 -0.262760
vt 0.876642 -0.959581
vt 0.856989 -0.964846
vt 0.071973 -0.307766
vt 0.071973 -0.262760
vt 0.053221 -0.307766
vt 0.053221 -0.262760
vt 0.858400 -0.959581
vt 0.068223 -0.307766
vt 0.068223 -0.262760
vt 0.049470 -0.307766
vt 0.049470 -0.262760
vt 0.049470 -0.307766
vt 0.049470 -0.262760
vt 0.094477 -0.262760
vt 0.094477 -0.307766
vt 0.049470 -0.307766
vt 0.049470 -0.262760
vt 0.094477 -0.262760
vt 0.094477 -0.307766
vt 0.049470 -0.307766
vt 0.049470 -0.262760
vt 0.094477 -0.262760
vt 0.094477 -0.307766
vt 0.049470 -0.307766
vt 0.049470 -0.262760
vt 0.094477 -0.262760
vt 0.094477 -0.307766
vt 0.049470 -0.307766
vt 0.049470 -0.262760
vt 0.094477 -0.262760
vt 0.094477 -0.307766
vt 0.049470 -0.307766
vt 0.049470 -0.262760
vt 0.094477 -0.262760
vt 0.094477 -0.307766
vt 0.049470 -0.307766
vt 0.049470 -0.262760
vt 0.094477 -0.262760
vt 0.094477 -0.307766
vt 0.049470 -0.307766
vt 0.049470 -0.262760
vt 0.094477 -0.262760
vt 0.094477 -0.307766
vt 0.049470 -0.307766
vt 0.049470 -0.262760
vt 0.094477 -0.262760
vt 0.094477 -0.307766
vt 0.049470 -0.307766
vt 0.049470 -0.262760
vt 0.094477 -0.262760
vt 0.094477 -0.307766
vt 0.049470 -0.307766
vt 0.049470 -0.262760
vt 0.094477 -0.262760
vt 0.094477 -0.307766
vt 0.049470 -0.307766
vt 0.049470 -0.262760
vt 0.094477 -0.262760
vt 0.878053 -0.975378
vt 0.856989 -0.975378
vt 0.856989 -0.954315
vt 0.878053 -0.954315
vt 0.878053 -0.975378
vt 0.856989 -0.975378
vt 0.856989 -0.954315
vt 0.878053 -0.954315
vt 0.878053 -0.975378
vt 0.856989 -0.975378
vt 0.856989 -0.954315
vt 0.878053 -0.954315
vt 0.878053 -0.975378
vt 0.856989 -0.975378
vt 0.856989 -0.954315
vt 0.878053 -0.954315
vt 0.878053 -0.975378
vt 0.856989 -0.975378
vt 0.856989 -0.954315
vt 0.878053 -0.954315
vt 0.878053 -0.975378
vt 0.856989 -0.975378
vt 0.856989 -0.954315
vt 0.878053 -0.954315
vt 0.878053 -0.975378
vt 0.856989 -0.975378
vt 0.856989 -0.954315
vt 0.878053 -0.954315
vt 0.878053 -0.975378
vt 0.856989 -0.975378
vt 0.856989 -0.954315
vt 0.878053 -0.954315
vt 0.878053 -0.975378
vt 0.856989 -0.975378
vt 0.856989 -0.954315
vt 0.878053 -0.954315
vt 0.878053 -0.975378
vt 0.856989 -0.975378
vt 0.856989 -0.954315
vt 0.878053 -0.954315
vt 0.878053 -0.975378
vt 0.856989 -0.975378
vt 0.856989 -0.954315
vt 0.878053 -0.954315
vt 0.878053 -0.975378
vt 0.856989 -0.975378
vt 0.856989 -0.954315
vt 0.878053 -0.954315
vt 0.878053 -0.975378
vt 0.856989 -0.975378
vt 0.856989 -0.954315
vt 0.878053 -0.954315
vt 0.878053 -0.975378
vt 0.856989 -0.975378
vt 0.856989 -0.954315
vt 0.878053 -0.954315
vt 0.878053 -0.975378
vt 0.856989 -0.975378
vt 0.856989 -0.954315
vt 0.878053 -0.954315
vt 0.878053 -0.975378
vt 0.856989 -0.975378
vt 0.856989 -0.954315
vt 0.878053 -0.954315
vt 0.878053 -0.975378
vt 0.856989 -0.975378
vt 0.856989 -0.954315
vt 0.878053 -0.954315
vt 0.878053 -0.975378
vt 0.856989 -0.975378
vt 0.856989 -0.954315
vt 0.878053 -0.954315
vt 0.878053 -0.975378
vt 0.856989 -0.975378
vt 0.856989 -0.954315
vt 0.878053 -0.954315
vt 0.878053 -0.975378
vt 0.856989 -0.975378
vt 0.856989 -0.954315
vt 0.878053 -0.954315
vt 0.878053 -0.975378
vt 0.856989 -0.975378
vt 0.856989 -0.954315
vt 0.878053 -0.954315
vt 0.878053 -0.975378
vt 0.856989 -0.975378
vt 0.856989 -0.954315
vt 0.878053 -0.954315
vt 0.878053 -0.975378
vt 0.856989 -0.975378
vt 0.856989 -0.954315
vt 0.878053 -0.954315
vt 0.878053 -0.975378
vt 0.856989 -0.975378
vt 0.856989 -0.954315
vt 0.878053 -0.954315
vt 0.103477 -0.301766
vt 0.058470 -0.301766
vt 0.058470 -0.256760
vt 0.103477 -0.256760
vt 0.103477 -0.301766
vt 0.058470 -0.301766
vt 0.058470 -0.256760
vt 0.103477 -0.256760
vt 0.103477 -0.301766
vt 0.058470 -0.301766
vt 0.058470 -0.256760
vt 0.103477 -0.256760
vt 0.103477 -0.301766
vt 0.058470 -0.301766
vt 0.058470 -0.256760
vt 0.103477 -0.256760
vt 0.103477 -0.301766
vt 0.058470 -0.301766
vt 0.058470 -0.256760
vt 0.103477 -0.256760
vt 0.103477 -0.301766
vt 0.058470 -0.301766
vt 0.058470 -0.256760
vt 0.103477 -0.256760
vt 0.103477 -0.301766
vt 0.058470 -0.301766
vt 0.058470 -0.256760
vt 0.103477 -0.256760
vt 0.103477 -0.301766
vt 0.058470 -0.301766
vt 0.058470 -0.256760
vt 0.103477 -0.256760
vt 0.103477 -0.301766
vt 0.058470 -0.301766
vt 0.058470 -0.256760
vt 0.103477 -0.256760
vt 0.103477 -0.301766
vt 0.058470 -0.301766
vt 0.058470 -0.256760
vt 0.103477 -0.256760
vt 0.103477 -0.301766
vt 0.058470 -0.301766
vt 0.058470 -0.256760
vt 0.103477 -0.256760
vt 0.103477 -0.301766
vt 0.058470 -0.301766
vt 0.058470 -0.256760
vt 0.103477 -0.256760
vt 0.103477 -0.301766
vt 0.058470 -0.301766
vt 0.058470 -0.256760
vt 0.103477 -0.256760
vt 0.103477 -0.301766
vt 0.058470 -0.301766
vt 0.058470 -0.256760
vt 0.103477 -0.256760
vt 0.103477 -0.301766
vt 0.058470 -0.301766
vt 0.058470 -0.256760
vt 0.103477 -0.256760
vt 0.103477 -0.301766
vt 0.058470 -0.301766
vt 0.058470 -0.256760
vt 0.103477 -0.256760
vt 0.103477 -0.301766
vt 0.058470 -0.301766
vt 0.058470 -0.256760
vt 0.103477 -0.256760
vt 0.103477 -0.301766
vt 0.058470 -0.301766
vt 0.058470 -0.256760
vt 0.103477 -0.256760
vt 0.103477 -0.301766
vt 0.058470 -0.301766
vt 0.058470 -0.256760
vt 0.103477 -0.256760
vt 0.103477 -0.301766
vt 0.058470 -0.301766
vt 0.058470 -0.256760
vt 0.103477 -0.256760
vt 0.103477 -0.301766
vt 0.058470 -0.301766
vt 0.058470 -0.256760
vt 0.103477 -0.256760
vt 0.103477 -0.301766
vt 0.058470 -0.301766
vt 0.058470 -0.256760
vt 0.103477 -0.256760
vt 0.103477 -0.301766
vt 0.058470 -0.301766
vt 0.058470 -0.256760
vt 0.103477 -0.256760
vt 0.103477 -0.301766
vt 0.058470 -0.301766
vt 0.058470 -0.256760
vt 0.103477 -0.256760
vt 0.061485 -0.290515
vt 0.069722 -0.298751
vt 0.080973 -0.301766
vt 0.058470 -0.279263
vt 0.080973 -0.301766
vt 0.092225 -0.298751
vt 0.100462 -0.290515
vt 0.066987 -0.250000
vt 0.080973 -0.301766
vt 0.100462 -0.290515
vt 0.100462 -0.268011
vt 0.092225 -0.259774
vt 0.875876 -0.960954
vt 0.875876 -0.960954
vt 0.864355 -0.960954
vt 0.875876 -0.960954
vt 0.872661 -0.975378
vt 0.872661 -0.954315
vt 0.881085 -0.971166
vt 0.865413 -0.971166
vt 0.865413 -0.950103
vt 0.865413 -0.950103
vt 0.856989 -0.954315
vt 0.856989 -0.954315
vt 0.878053 -0.954315
vt 0.878053 -0.954315
vt 0.872556 -0.975378
vt 0.856989 -0.975378
vt 0.856989 -0.954315
vt 0.872556 -0.954315
vt 0.872556 -0.975378
vt 0.872556 -0.954315
vt 0.872556 -0.975378
vt 0.872556 -0.954315
vt 0.872556 -0.975378
vt 0.856989 -0.954315
vt 0.872556 -0.954315
vt 0.878053 -0.975378
vt 0.871879 -0.975378
vt 0.871879 -0.954315
vt 0.878053 -0.954315
vt 0.871879 -0.975378
vt 0.871879 -0.954315
vt 0.871879 -0.975378
vt 0.856989 -0.975378
vt 0.856989 -0.954315
vt 0.871879 -0.954315
vt 0.871879 -0.975378
vt 0.856989 -0.954315
vt 0.871879 -0.954315
vt 0.873639 -0.975378
vt 0.856989 -0.975378
vt 0.856989 -0.954315
vt 0.873639 -0.954315
vt 0.873639 -0.975378
vt 0.873639 -0.954315
vt 0.873639 -0.975378
vt 0.873639 -0.954315
vt 0.873639 -0.975378
vt 0.856989 -0.954315
vt 0.873639 -0.954315
vt 0.856989 -0.954315
vt 0.872661 -0.954315
vt 0.856989 -0.975378
vt 0.865413 -0.950103
vt 0.886477 -0.971166
vt 0.856989 -0.975378
vt 0.856989 -0.954315
vt 0.856989 -0.975378
vt 0.878053 -0.954315
vt 0.878053 -0.975378
vt 0.856989 -0.975378
vt 0.856989 -0.975378
vt 0.856989 -0.954315
vt 0.878053 -0.954315
vt 0.878053 -0.975378
vt 0.856989 -0.975378
vt 0.856989 -0.975378
vt 0.856989 -0.954315
vn 0.0000 -1.0000 0.0000
vn 0.2588 0.0000 -0.9659
vn 0.7071 0.0000 -0.7071
vn -0.9659 0.0000 0.2588
vn 0.9659 0.0000 -0.2588
vn 0.9659 0.0000 0.2588
vn -0.9659 0.0000 -0.2588
vn 0.7071 -0.0000 0.7071
vn 0.2588 -0.0000 0.9659
vn -0.7071 0.0000 -0.7071
vn -0.2588 -0.0000 0.9659
vn -0.7071 0.0000 0.7071
vn -0.2588 0.0000 -0.9659
vn 0.0576 0.9750 -0.2148
vn -0.0576 0.9750 -0.2148
vn 0.1573 0.9750 -0.1573
vn -0.1573 0.9750 -0.1573
vn 0.2148 0.9750 -0.0576
vn -0.2148 0.9750 -0.0576
vn 0.2148 0.9750 0.0576
vn -0.2148 0.9750 0.0576
vn 0.1573 0.9750 0.1573
vn -0.1573 0.9750 0.1573
vn 0.0576 0.9750 0.2148
vn -0.0576 0.9750 0.2148
vn 0.0439 -0.9855 -0.1637
vn -0.0439 -0.9855 -0.1637
vn 0.1199 -0.9855 -0.1199
vn -0.1199 -0.9855 -0.1199
vn 0.1637 -0.9855 -0.0439
vn -0.1637 -0.9855 -0.0439
vn 0.1637 -0.9855 0.0439
vn -0.1637 -0.9855 0.0439
vn 0.1199 -0.9855 0.1199
vn -0.1199 -0.9855 0.1199
vn 0.0439 -0.9855 0.1637
vn -0.0439 -0.9855 0.1637
vn 0.2492 0.2701 -0.9300
vn -0.2492 0.2701 -0.9300
vn 0.6808 0.2701 -0.6808
vn -0.6808 0.2701 -0.6808
vn 0.9300 0.2701 -0.2492
vn -0.9300 0.2701 -0.2492
vn 0.9300 0.2701 0.2492
vn -0.9300 0.2701 0.2492
vn 0.6808 0.2701 0.6808
vn -0.6808 0.2701 0.6808
vn 0.2492 0.2701 0.9300
vn -0.2492 0.2701 0.9300
vn 0.0668 0.9661 -0.2494
vn -0.0668 0.9661 -0.2494
vn 0.1826 0.9661 -0.1826
vn -0.1826 0.9661 -0.1826
vn 0.2494 0.9661 -0.0668
vn -0.2494 0.9661 -0.0668
vn 0.2494 0.9661 0.0668
vn -0.2494 0.9661 0.0668
vn 0.1826 0.9661 0.1826
vn -0.1826 0.9661 0.1826
vn 0.0668 0.9661 0.2494
vn -0.0668 0.9661 0.2494
vn 0.0000 1.0000 0.0000
vn -0.0024 -0.9999 0.0106
vn 0.9539 0.0000 0.3001
vn 0.0018 1.0000 -0.0080
vn -0.9612 0.0000 -0.2757
vn -0.0033 -1.0000 -0.0007
vn 0.2788 0.0000 -0.9604
vn -0.0033 1.0000 -0.0007
vn -0.2570 0.0000 0.9664
vn 0.0038 -1.0000 0.0006
vn -0.2759 -0.0000 0.9612
vn 0.0038 1.0000 0.0005
vn 0.2747 0.0000 -0.9615
vn -0.0005 -1.0000 0.0040
vn -0.9571 0.0000 -0.2896
vn -0.0005 1.0000 0.0040
vn 0.9650 0.0000 0.2624
vn 0.0018 -1.0000 -0.0080
vn 0.9665 0.0000 0.2566
vn -0.0024 0.9999 0.0106
vn -0.9728 0.0000 -0.2317
vn 0.0038 -1.0000 0.0005
vn -0.2513 0.0000 0.9679
vn 0.0038 1.0000 0.0006
vn 0.2499 0.0000 -0.9683
vn -0.9707 0.0000 -0.2404
vn 0.9773 0.0000 0.2117
vn 0.2520 0.0000 -0.9677
vn -0.2299 -0.0000 0.9732
usemtl Palette
s off
f 1/1/1 2/2/1 3/3/1
f 2/4/2 4/5/2 5/6/2 3/7/2
f 1/1/1 6/8/1 7/9/1
f 1/1/1 3/3/1 8/10/1
f 3/7/3 5/6/3 9/11/3 8/12/3
f 6/13/4 10/14/4 11/15/4 7/16/4
f 1/1/1 8/10/1 12/17/1
f 8/12/5 9/11/5 13/18/5 12/19/5
f 1/1/1 7/9/1 14/20/1
f 1/1/1 12/17/1 15/21/1
f 12/19/6 13/18/6 16/22/6 15/23/6
f 7/16/7 11/15/7 17/24/7 14/25/7
f 1/1/1 15/21/1 18/26/1
f 15/23/8 16/22/8 19/27/8 18/28/8
f 1/1/1 14/20/1 20/29/1
f 1/1/1 18/26/1 21/30/1
f 18/28/9 19/27/9 22/31/9 21/32/9
f 14/25/10 17/24/10 23/33/10 20/34/10
f 1/1/1 21/30/1 24/35/1
f 21/32/11 22/31/11 25/36/11 24/37/11
f 1/1/1 20/29/1 2/2/1
f 1/1/1 24/35/1 6/8/1
f 24/37/12 25/36/12 10/14/12 6/13/12
f 20/34/13 23/33/13 4/38/13 2/39/13
f 4/5/14 26/40/14 27/41/14 5/42/14
f 23/43/15 28/44/15 26/45/15 4/46/15
f 5/47/16 27/48/16 29/49/16 9/50/16
f 17/51/17 30/52/17 28/53/17 23/54/17
f 9/55/18 29/56/18 31/57/18 13/58/18
f 11/59/19 32/60/19 30/61/19 17/62/19
f 13/63/20 31/64/20 33/65/20 16/66/20
f 10/67/21 34/68/21 32/69/21 11/70/21
f 16/71/22 33/72/22 35/73/22 19/74/22
f 25/75/23 36/76/23 34/77/23 10/78/23
f 19/79/24 35/80/24 37/81/24 22/82/24
f 22/83/25 37/84/25 36/85/25 25/86/25
f 38/87/2 39/88/2 40/89/2 41/90/2
f 28/91/13 42/92/13 43/93/13 26/94/13
f 27/95/3 44/96/3 45/97/3 29/98/3
f 30/99/10 46/100/10 42/101/10 28/102/10
f 29/103/5 45/104/5 47/105/5 31/106/5
f 48/107/7 49/108/7 50/109/7 51/110/7
f 52/111/6 53/112/6 54/113/6 55/114/6
f 34/115/4 56/116/4 57/117/4 32/118/4
f 33/119/8 58/120/8 59/121/8 35/122/8
f 36/123/12 60/124/12 56/125/12 34/126/12
f 35/127/9 59/128/9 61/129/9 37/130/9
f 62/131/11 63/132/11 64/133/11 65/134/11
f 43/135/26 66/136/26 67/137/26 44/138/26
f 42/139/27 68/140/27 66/141/27 43/142/27
f 44/143/28 67/144/28 69/145/28 45/146/28
f 46/147/29 70/148/29 68/149/29 42/150/29
f 45/151/30 69/152/30 71/153/30 47/154/30
f 57/155/31 72/156/31 70/157/31 46/158/31
f 47/159/32 71/160/32 73/161/32 58/162/32
f 56/163/33 74/164/33 72/165/33 57/166/33
f 58/167/34 73/168/34 75/169/34 59/170/34
f 60/171/35 76/172/35 74/173/35 56/174/35
f 59/175/36 75/176/36 77/177/36 61/178/36
f 61/179/37 77/180/37 76/181/37 60/182/37
f 66/183/38 78/184/38 79/185/38 67/186/38
f 68/187/39 80/188/39 78/189/39 66/190/39
f 67/191/40 79/192/40 81/193/40 69/194/40
f 70/195/41 82/196/41 80/197/41 68/198/41
f 69/199/42 81/200/42 83/201/42 71/202/42
f 72/203/43 84/204/43 82/205/43 70/206/43
f 71/207/44 83/208/44 85/209/44 73/210/44
f 74/211/45 86/212/45 84/213/45 72/214/45
f 73/215/46 85/216/46 87/217/46 75/218/46
f 76/219/47 88/220/47 86/221/47 74/222/47
f 75/223/48 87/224/48 89/225/48 77/226/48
f 77/227/49 89/228/49 88/229/49 76/230/49
f 78/231/50 90/232/50 91/233/50 79/234/50
f 80/235/51 92/236/51 90/237/51 78/238/51
f 79/239/52 91/240/52 93/241/52 81/242/52
f 82/243/53 94/244/53 92/245/53 80/246/53
f 81/247/54 93/248/54 95/249/54 83/250/54
f 84/251/55 96/252/55 94/253/55 82/254/55
f 83/255/56 95/256/56 97/257/56 85/258/56
f 86/259/57 98/260/57 96/261/57 84/262/57
f 85/263/58 97/264/58 99/265/58 87/266/58
f 88/267/59 100/268/59 98/269/59 86/270/59
f 87/271/60 99/272/60 101/273/60 89/274/60
f 89/275/61 101/276/61 100/277/61 88/278/61
f 92/279/62 94/280/62 96/281/62 98/282/62 100/283/62 101/284/62 99/285/62 97/286/62 95/287/62 93/288/62 91/289/62 90/290/62
f 26/291/63 103/292/63 104/293/63 27/294/63
f 27/95/64 104/295/64 105/296/64 44/138/64
f 105/297/65 40/298/65 39/299/65 106/300/65
f 106/301/66 39/302/66 38/303/66 103/304/66
f 107/305/67 48/306/67 51/307/67 108/308/67
f 30/99/68 108/309/68 109/310/68 46/158/68
f 46/147/69 109/311/69 110/312/69 57/166/69
f 110/313/70 49/108/70 48/314/70 107/315/70
f 31/316/71 111/317/71 112/318/71 33/319/71
f 33/119/72 112/320/72 113/321/72 58/162/72
f 113/322/73 54/323/73 53/324/73 114/325/73
f 114/326/74 53/112/74 52/327/74 111/328/74
f 115/329/75 62/330/75 65/331/75 116/332/75
f 36/123/76 116/333/76 117/334/76 60/182/76
f 60/171/77 117/335/77 118/336/77 61/178/77
f 118/337/78 63/132/78 62/338/78 115/339/78
f 103/304/79 38/303/79 41/340/79 104/341/79
f 104/295/80 41/342/80 40/89/80 105/296/80
f 106/300/81 43/343/81 44/344/81 105/297/81
f 103/304/82 26/94/82 43/93/82 106/301/82
f 111/317/83 52/345/83 55/346/83 112/318/83
f 112/320/84 55/347/84 54/113/84 113/321/84
f 114/325/85 47/154/85 58/167/85 113/322/85
f 111/328/86 31/106/86 47/159/86 114/326/86
f 116/332/75 36/348/75 37/349/75 115/329/75
f 116/333/87 65/350/87 64/133/87 117/334/87
f 117/335/77 64/351/77 63/352/77 118/336/77
f 115/339/88 37/130/88 61/179/88 118/337/88
f 108/308/67 30/353/67 32/354/67 107/305/67
f 108/309/89 51/355/89 50/109/89 109/310/89
f 109/311/69 50/356/69 49/357/69 110/312/69
f 107/315/90 32/118/90 57/155/90 110/313/90
